# xmcd
#
# Track frame offsets:
#	150
#	15878
#	32175
#	51825
#	72843
#	90341
#	103939
#	117608
#	143935
#	167525
#	180586
#	198713
#	214081
#	228199
#	240940
#	258388
#
# Disc length: 3749 seconds
#
# Revision: 0
# Processed by: cddbd v1.5.1PL0 Copyright (c) Steve Scherf et al.
# Submitted via: dBpowerAMP V4.0
#
DISCID=d60ea310
DTITLE=Various Artist - Very Best Of Soul
DYEAR=1900
DGENRE=
TTITLE0=Joe Tex - Aint gonna bump no more
TTITLE1=Dorothy More - Misty Blue
TTITLE2=Freddie Jackson - Rock Me Tonight
TTITLE3=Charles and Eddie - Would I Lie to you
TTITLE4=Billy Ocean - Suddenly
TTITLE5=The Temptation - My Girl
TTITLE6=King Floyd - Groove Me
TTITLE7=Phyllis Nelson - Move Closer
TTITLE8=Delegation Where Is The Love
TTITLE9=BT Express - Do It
TTITLE10=Tavares - It Only Take A Minute
TTITLE11=The Wispers - And The Beat Goes On
TTITLE12=Jesse Green - Nice And Slow
TTITLE13=New York City - I'm Doin' Fine Now
TTITLE14=The Temptations Just My Imagination
TTITLE15=The Chi-Lites -  Have You Seen Her
EXTD=Very Best of Soul\n
EXTT0=
EXTT1=
EXTT2=
EXTT3=
EXTT4=
EXTT5=
EXTT6=
EXTT7=
EXTT8=
EXTT9=
EXTT10=
EXTT11=
EXTT12=
EXTT13=
EXTT14=
EXTT15=
PLAYORDER=
